<?xml version="1.0" encoding="utf-8"?>
<!-- Generator: Adobe Illustrator 25.0.1, SVG Export Plug-In . SVG Version: 6.00 Build 0)  -->
<svg version="1.0" id="katman_1" xmlns="http://www.w3.org/2000/svg" xmlns:xlink="http://www.w3.org/1999/xlink" x="0px" y="0px"
	 viewBox="0 0 257.7 168.3" style="enable-background:new 0 0 257.7 168.3;" xml:space="preserve">
<style type="text/css">
	.st0{fill:#231F20;}
	.st1{fill:#CDB87D;}
	.st2{fill:#EE3524;}
	.st3{fill:#FFFFFF;}
	.st4{fill:none;stroke:#231F20;stroke-width:0.29;stroke-linecap:round;stroke-linejoin:round;}
	.st5{fill:#004FA3;}
	.st6{fill-rule:evenodd;clip-rule:evenodd;fill:#CDB87D;}
	.st7{fill:none;stroke:#231F20;stroke-width:0.61;stroke-miterlimit:10;}
</style>
<g id="Réteg_2">
	<g id="Layer_1">
		<path class="st0" d="M128.5,119.1c1.1-1.5,3-1.1,4,0.3c0.3,0.3,0.7,0.4,1.1,0.4c0.3,0,0.5-0.1,0.8-0.2c3.8-2.3,6.2-5.1,8.9-8.4
			v22.2l16,12.9H97.8l16-12.9v-22.2c2.8,3.3,5.3,6.1,9,8.4c0.2,0.1,0.4,0.2,0.7,0.2c0.4,0,0.8-0.2,1.1-0.4
			C125.6,118,127.5,117.5,128.5,119.1L128.5,119.1z"/>
		<path class="st1" d="M135,121.1c-0.4,0.2-0.9,0.3-1.4,0.3c-0.9,0-1.7-0.3-2.3-0.9c-0.9-1.4-1.8-0.6-1.7,0.8l0.1,0.9h-2.2
			c0-0.6,0.3-2.2-0.6-2.4c-0.4-0.1-0.9,0.4-1.1,0.7c-0.6,0.6-1.4,1-2.3,0.9c-0.5,0-1-0.1-1.5-0.3c-2.4-1.5-4.7-3.4-6.6-5.5v18.6
			l-13,10.4h52.3l-13-10.4v-18.6c-2,2.1-4.2,3.9-6.6,5.4L135,121.1L135,121.1z"/>
		<path class="st0" d="M128.5,119.1c1.1-1.5,3-1.1,4,0.3c0.3,0.3,0.7,0.4,1.1,0.4c0.3,0,0.5-0.1,0.8-0.2c1.9-1.3,3.7-2.7,5.4-4.2
			V135l10.1,8.1h-42.5l10.1-8.1v-19.6c1.7,1.6,3.5,3,5.4,4.2c0.2,0.1,0.4,0.2,0.7,0.2c0.4,0,0.8-0.2,1.2-0.4
			C125.6,118,127.5,117.5,128.5,119.1z"/>
		<path class="st2" d="M135,121.1c-0.4,0.2-0.9,0.3-1.4,0.3c-0.9,0-1.7-0.3-2.3-0.9c-0.9-1.4-1.8-0.6-1.7,0.8l0.1,0.9h-2.2
			c0-0.6,0.3-2.2-0.6-2.4c-0.4-0.1-0.9,0.4-1.1,0.7c-0.6,0.6-1.4,1-2.3,0.9c-0.5,0-1-0.1-1.5-0.3c-1-0.7-2-1.4-3-2.2v16.8l-7.1,5.8
			h33.4l-7.2-5.8v-16.8C137.1,119.7,136.1,120.4,135,121.1L135,121.1L135,121.1z"/>
		<path class="st0" d="M128.5,119.1c1.1-1.5,3-1.1,4,0.3c0.3,0.3,0.7,0.4,1.1,0.4c0.9,0.8,0.9,18,0.9,18h-11.9v-18h0.9
			c0.4,0,0.8-0.2,1.2-0.4C125.6,118,127.5,117.5,128.5,119.1z"/>
		<path class="st1" d="M132.8,121.3c-0.6-0.1-1.1-0.4-1.6-0.9c-0.9-1.4-1.8-0.6-1.7,0.8l0.1,0.9h-2.2c0-0.6,0.3-2.2-0.6-2.4
			c-0.4-0.1-0.9,0.4-1.1,0.7c-0.4,0.4-1,0.7-1.6,0.9v14.9h8.6C132.8,136.2,132.8,121.3,132.8,121.3z"/>
		<path class="st0" d="M128.5,119.1c0.3-0.5,0.8-0.8,1.4-0.9l1.1-0.1v16h-5v-16l1.2,0.1C127.7,118.3,128.2,118.6,128.5,119.1
			L128.5,119.1z"/>
		<polygon class="st3" points="129.4,122.2 127.6,122.2 127.6,132.4 129.4,132.4 129.4,122.2 129.4,122.2 		"/>
		<path class="st0" d="M162.9,58.9L175.7,43v61.4l-12.8-16h-11c0.6-10.2,3.1-20.2,7.4-29.5L162.9,58.9z"/>
		<path class="st1" d="M163.6,60.5h-3.3c-3.7,8.3-6,17.2-6.7,26.3h10l10.5,13.1V47.5L163.6,60.5L163.6,60.5z"/>
		<path class="st0" d="M164.4,62.5l8.1-10.1v42.6l-8.1-10.1h-12.2c0.7-7.7,2.6-15.2,5.5-22.4H164.4z"/>
		<path class="st2" d="M165.2,64.1h-6.5c-2.4,6.2-4,12.6-4.8,19.2h11.2l5.8,7.1V56.9L165.2,64.1L165.2,64.1z"/>
		<path class="st0" d="M167.2,67.7v11.9h-14.4c0.7-4,1.7-8,2.9-11.9H167.2z"/>
		<path class="st1" d="M165.7,69.4H157c-0.9,2.8-1.6,5.7-2.2,8.6h10.9V69.4z"/>
		<path class="st0" d="M163.4,71.1v5.1h-9.9c0.4-1.7,0.8-3.4,1.2-5.1H163.4z"/>
		<polygon class="st3" points="161.9,72.8 155.9,72.8 155.5,74.6 161.9,74.6 161.9,72.8 161.9,72.8 		"/>
		<path class="st0" d="M94.9,58.9h3.5c4.5,9.5,6.6,19,7.4,29.5H94.9l-12.9,16V43L94.9,58.9L94.9,58.9z"/>
		<path class="st1" d="M94.1,60.5l-10.5-13v52.4l10.5-13.1h10c-0.7-9.1-3-18-6.7-26.3L94.1,60.5z"/>
		<path class="st0" d="M93.2,62.5h6.8c2.9,7.2,4.7,14.7,5.5,22.4H93.2l-8.1,10.1V52.4L93.2,62.5z"/>
		<path class="st2" d="M92.4,64.1l-5.7-7.2v33.5l5.7-7.1h11.3c-0.8-6.6-2.4-13-4.8-19.2L92.4,64.1z"/>
		<path class="st0" d="M90.4,67.7h11.5c1.2,3.9,2.2,7.9,2.9,11.9H90.4V67.7z"/>
		<path class="st1" d="M92.1,69.4V78h10.8c-0.6-3-1.3-5.9-2.1-8.6L92.1,69.4z"/>
		<path class="st0" d="M94.2,71.1h8.8c0.4,1.7,0.9,3.4,1.2,5.1h-10V71.1z"/>
		<polygon class="st3" points="95.9,72.8 95.9,74.6 102.2,74.6 101.7,72.8 95.9,72.8 95.9,72.8 		"/>
		<path class="st0" d="M128.7,46.1c-0.5,3.5-4.8,3.5-6.8,1.2l-1.4,1c-2.1,1.3-4.4,2.4-6.7,3.2V34.8L97.8,22h61.4l-16,12.8v16.8
			c-2.3-0.9-4.5-2-6.7-3.2l-1.5-1c-2.1,2.5-6.8,2.1-6.8-1.8v-0.3l0.9,0.9L128.7,46.1z"/>
		<path class="st1" d="M141.7,34.1l13-10.5h-52.3l13,10.5v15.1c2.5-1.1,4.8-2.5,7-4.1c0.7,1.2,1.7,2.4,3.2,2.2
			c0.9-0.1,1.5-0.8,1.5-1.7l-0.1-1.2h3l-0.1,1.2c0,2.4,3.3,2,4.3,0.3l0.4-0.8c2.2,1.6,4.6,3,7.1,4.1L141.7,34.1L141.7,34.1z"/>
		<path class="st0" d="M128.7,46.1c-0.5,3.5-4.8,3.5-6.8,1.2l-1.4,1c-1,0.6-2,1.1-3.1,1.7V33.2l-10.1-8.1h42.5l-10.1,8.1v16.9
			c-1.1-0.6-2.2-1.2-3.2-1.7l-1.5-1c-2.1,2.5-6.8,2.1-6.8-1.8v-0.3l0.9,0.9L128.7,46.1z"/>
		<path class="st2" d="M138.1,32.4l7.2-5.8h-33.4l7.1,5.8v15l0.7-0.4c0.9-0.6,1.9-1.2,2.7-1.9c0.7,1.2,1.7,2.5,3.2,2.2
			c0.9-0.1,1.5-0.8,1.5-1.7l-0.1-1.2h3l-0.1,1.2c0,2.4,3.3,2,4.3,0.3l0.4-0.8c0.9,0.7,1.8,1.3,2.8,1.9l0.6,0.4L138.1,32.4
			L138.1,32.4z"/>
		<path class="st0" d="M128.7,46.1c-0.4,3.3-3.9,3.3-6.1,1.9V30.4h11.9V48c-1,0.7-2.1,1-3.3,0.9c-1.7-0.3-2.9-1.7-2.9-3.4v-0.3
			l0.9,0.9L128.7,46.1z"/>
		<path class="st1" d="M132.8,32h-8.6v15.1c1.2,0.6,3,0.2,3-1.4l-0.1-1.2h3l-0.1,1.2c0,1.6,1.7,2,2.9,1.4L132.8,32L132.8,32z"/>
		<path class="st0" d="M128.7,46.1c-0.2,1.7-1.4,2.2-2.7,3.1v-15h5v15c-1.4-0.9-2.7-1.7-2.7-3.7v-0.3l0.9,0.9H128.7z"/>
		<polygon class="st3" points="129.4,44.5 129.4,35.8 127.6,35.8 127.6,44.5 129.4,44.5 129.4,44.5 		"/>
		<path class="st2" d="M129.2,45.3h-1.2v0.3l0,0c0,1.3-0.9,2.4-2.2,2.5c-1.5,0.1-2.9-0.6-3.6-1.9c-0.7,0.5-1.4,0.9-2.1,1.4
			c-6.6,4.1-13.5,5.5-16.6,3.5l0,0l-1.5-0.8l-5.8,6.2l0,0c5.5,10.1,8.9,23.4,8.9,37.9c0,3.3-0.1,6.7-0.5,10c3.3,1.5,6.2,3.9,8.3,6.9
			l0,0c2.5,3.6,5.7,6.7,9.4,9.1c0.3,0.2,0.7,0.2,1.1,0.2c0.6,0,1.3-0.2,1.7-0.7c0.3-0.7,1.1-1.1,1.8-1c0.9,0.4,1.5,1.4,1.3,2.4h0.5
			c-0.3-1,0.2-2,1.2-2.4c0.8-0.1,1.5,0.3,1.9,1c0.4,0.4,1,0.6,1.6,0.7c0.4,0,0.8-0.1,1.2-0.2c3.7-2.4,6.9-5.5,9.4-9.1h0.1
			c2.1-2.9,5-5.3,8.3-6.8c-0.4-3.3-0.6-6.7-0.6-10c0-14.5,3.4-27.9,9-37.9l0,0l-5.7-6.2l-1.5,0.8l0,0c-3,2-10,0.6-16.6-3.5
			c-0.7-0.4-1.4-0.9-2.1-1.4c-0.8,1.3-2.2,2-3.7,1.9c-1.3-0.2-2.2-1.3-2.2-2.5l0,0C129.1,45.5,129.1,45.4,129.2,45.3z"/>
		<path class="st4" d="M129.2,45.3h-1.2v0.3l0,0c0,1.3-0.9,2.4-2.2,2.5c-1.5,0.1-2.9-0.6-3.6-1.9c-0.7,0.5-1.4,0.9-2.1,1.4
			c-6.6,4.1-13.5,5.5-16.6,3.5l0,0l-1.5-0.8l-5.8,6.2l0,0c5.5,10.1,8.9,23.4,8.9,37.9c0,3.3-0.1,6.7-0.5,10c3.3,1.5,6.2,3.9,8.3,6.9
			l0,0c2.5,3.6,5.7,6.7,9.4,9.1c0.3,0.2,0.7,0.2,1.1,0.2c0.6,0,1.3-0.2,1.7-0.7c0.3-0.7,1.1-1.1,1.8-1c0.9,0.4,1.5,1.4,1.3,2.4h0.5
			c-0.3-1,0.2-2,1.2-2.4c0.8-0.1,1.5,0.3,1.9,1c0.4,0.4,1,0.6,1.6,0.7c0.4,0,0.8-0.1,1.2-0.2c3.7-2.4,6.9-5.5,9.4-9.1h0.1
			c2.1-2.9,5-5.3,8.3-6.8c-0.4-3.3-0.6-6.7-0.6-10c0-14.5,3.4-27.9,9-37.9l0,0l-5.7-6.2l-1.5,0.8l0,0c-3,2-10,0.6-16.6-3.5
			c-0.7-0.4-1.4-0.9-2.1-1.4c-0.8,1.3-2.2,2-3.7,1.9c-1.3-0.2-2.2-1.3-2.2-2.5l0,0C129.1,45.5,129.1,45.4,129.2,45.3z"/>
		<path class="st0" d="M118.9,110.8l-1.4-2c-1.5-2.2-3.3-4.1-5.4-5.6l-2-1.4l0.1-3.2l-0.7-15.9c-0.7-5.1-1.8-10.1-3.2-15l-1.2-3.7
			l3.7-4.2c1.2,0.1,2.2,0.2,3.4,0.2c2.8,0.1,5.5-0.4,8.1-1.4c0.3-0.2,0.7-0.4,1-0.5c2.4-0.9,5-0.8,7.3,0.3c2.3-1.1,5-1.2,7.4-0.3
			c0.4,0.1,0.7,0.3,1.1,0.5c2.6,1,5.4,1.5,8.1,1.4c1.1,0,2.2-0.1,3.3-0.2l3.7,4.2l-1.1,3.7c-1.4,4.9-2.5,10-3.2,15.1l-0.7,15.9
			l0.1,3.2l-2,1.4c-2.2,1.5-4,3.4-5.5,5.6l-1.4,2c-4.6,5.4-12.6,6.1-18,1.5C119.9,111.9,119.4,111.4,118.9,110.8L118.9,110.8z"/>
		<path class="st1" d="M120,109.8c2.2,2.5,5.3,4,8.6,3.9c3.2,0.1,6.3-1.3,8.4-3.8l1.4-1.9c1.6-2.3,3.5-4.4,5.8-6.1l1.3-0.8l-0.1-2.4
			l0.7-16c0.7-5.2,1.7-10.3,3.2-15.3l0.9-2.9l-2.5-2.9c-0.9,0.1-1.8,0.1-2.7,0.1c-3,0.2-6.1-0.3-8.9-1.5c-0.4-0.2-0.6-0.4-0.9-0.5
			c-2.3-0.8-4.8-0.6-6.8,0.7c-2-1.3-4.5-1.6-6.7-0.7c-0.3,0.2-0.6,0.4-0.9,0.5c-2.8,1.2-5.8,1.7-8.8,1.5c-0.9,0-1.8,0-2.7-0.1
			l-2.5,2.9l0.9,2.9c1.4,5,2.5,10.2,3.2,15.3l0.7,16l-0.2,2.4l1.3,0.8C116.2,104.1,117.9,106.7,120,109.8z"/>
		<path class="st0" d="M134.9,61c2.7,1.6,7,2,9.9,2c0.8,0,1.6,0,2.4-0.1l1.6,1.8c-3.2,9.9-4.8,20.2-4.8,30.5c0,1.7,0.1,3.4,0.1,5.1
			c-3.2,2.1-5.8,4.9-7.8,8.1c-1.8,2.4-4.6,3.9-7.6,3.9c-3.1,0-6.1-1.4-7.9-3.9c-1.8-3.3-4.5-6.1-7.6-8.1c0.1-1.7,0.1-3.4,0.1-5.1
			c0-10.4-1.6-20.7-4.8-30.6l1.7-1.8c0.7,0.1,1.5,0.1,2.3,0.1c2.9,0,7.2-0.4,9.8-2c0.7-0.3,1.5-0.5,2.3-0.5c1.6,0,3.1,0.6,4.2,1.7
			l0.9-0.7c0.9-0.6,1.9-1,3-1.1C133.3,60.5,134.1,60.7,134.9,61L134.9,61z"/>
		<path class="st3" d="M134.2,62.4c-0.5-0.2-1.1-0.4-1.7-0.4c-1.2,0-3.2,1.6-4.2,2.4c-1-1.4-2-2.4-3.9-2.4c-0.6,0-1.1,0.1-1.7,0.4
			c-2.3,1.4-6.1,2.2-10.4,2.2l-1.7-0.1l-0.5,0.6c3.1,9.7,4.6,19.9,4.6,30.1c0,1.4-0.1,2.9-0.1,4.2c3,2.1,5.5,4.9,7.3,8.1
			c1.5,2,3.8,3.2,6.3,3.2c2.6,0.1,5.1-1.1,6.7-3.1c1.9-3.2,4.4-6,7.4-8.1c-0.1-1.4-0.1-2.8-0.1-4.2c-0.1-10.2,1.5-20.4,4.5-30.1
			l-0.5-0.6l-1.7,0.1C140.5,64.6,136.6,63.8,134.2,62.4L134.2,62.4z"/>
		<path class="st5" d="M124.8,80.9h7.3v8.8l0,0c0,1.5-1.6,2.7-3.7,2.7c-2,0-3.7-1.2-3.7-2.7l0,0C124.8,89.8,124.8,80.9,124.8,80.9z"
			/>
		<path class="st3" d="M130.7,90.3c-0.4,0-0.7-0.2-0.7-0.6c0,0,0,0,0,0c0-0.4,0.3-0.7,0.6-0.7c0,0,0.1,0,0.1,0
			c0.4,0,0.7,0.3,0.7,0.7c0,0,0,0,0,0C131.3,90,131,90.3,130.7,90.3L130.7,90.3z"/>
		<path class="st3" d="M126.4,90.3c-0.4,0-0.7-0.2-0.7-0.6c0,0,0,0,0,0c0-0.4,0.3-0.7,0.6-0.7c0,0,0.1,0,0.1,0
			c0.4,0,0.7,0.3,0.7,0.7c0,0,0,0,0,0C127.1,90,126.8,90.3,126.4,90.3L126.4,90.3z"/>
		<path class="st3" d="M128.5,85.6c0.4,0,0.7,0.3,0.7,0.6c0,0.4-0.3,0.7-0.7,0.7c0,0,0,0,0,0c-0.4,0-0.7-0.3-0.7-0.7c0,0,0,0,0-0.1
			C127.9,85.9,128.1,85.6,128.5,85.6C128.5,85.6,128.5,85.6,128.5,85.6z"/>
		<path class="st3" d="M130.7,82.1c0.4,0,0.7,0.3,0.7,0.7c0,0.4-0.3,0.7-0.7,0.7l0,0c-0.4,0-0.7-0.2-0.7-0.6c0,0,0,0,0,0
			C129.9,82.4,130.3,82.1,130.7,82.1C130.7,82.1,130.7,82.1,130.7,82.1z"/>
		<path class="st3" d="M126.4,83.5c-0.4,0-0.7-0.2-0.7-0.6c0,0,0,0,0,0c0-0.4,0.3-0.7,0.7-0.7c0,0,0,0,0,0c0.4,0,0.7,0.3,0.7,0.7
			C127.1,83.2,126.8,83.5,126.4,83.5L126.4,83.5z"/>
		<path class="st5" d="M133.7,80.9h7.3v8.8l0,0c0,1.5-1.7,2.7-3.7,2.7s-3.7-1.2-3.7-2.7l0,0L133.7,80.9L133.7,80.9z"/>
		<path class="st3" d="M139.5,90.3c-0.4,0-0.7-0.2-0.7-0.6c0,0,0,0,0,0c0-0.4,0.3-0.7,0.6-0.7c0,0,0.1,0,0.1,0
			c0.4,0,0.7,0.3,0.7,0.7c0,0,0,0,0,0C140.2,90,139.9,90.3,139.5,90.3L139.5,90.3z"/>
		<path class="st3" d="M135.3,90.3c-0.4,0-0.7-0.2-0.7-0.6c0,0,0,0,0,0c0-0.4,0.3-0.7,0.6-0.7c0,0,0.1,0,0.1,0
			c0.4,0,0.7,0.3,0.7,0.7c0,0,0,0,0,0C135.9,90,135.6,90.3,135.3,90.3L135.3,90.3z"/>
		<path class="st3" d="M137.4,85.6c0.4,0,0.7,0.2,0.7,0.6c0,0,0,0,0,0c0,0.4-0.3,0.7-0.6,0.7c0,0-0.1,0-0.1,0
			c-0.4,0-0.7-0.3-0.7-0.7c0,0,0,0,0-0.1C136.7,85.9,137,85.6,137.4,85.6C137.4,85.6,137.4,85.6,137.4,85.6z"/>
		<path class="st3" d="M139.5,82.1c0.4,0,0.7,0.3,0.6,0.7c0,0.4-0.3,0.7-0.6,0.7l0,0c-0.4,0-0.7-0.2-0.7-0.6c0,0,0,0,0,0
			C138.8,82.4,139.1,82.1,139.5,82.1C139.5,82.1,139.5,82.1,139.5,82.1z"/>
		<path class="st3" d="M135.3,83.5c-0.4,0-0.7-0.2-0.7-0.6c0,0,0,0,0,0c0-0.4,0.3-0.7,0.7-0.7c0,0,0,0,0,0c0.4,0,0.7,0.3,0.6,0.7
			C135.9,83.2,135.6,83.5,135.3,83.5L135.3,83.5z"/>
		<path class="st5" d="M116.1,80.9h7.3v8.8l0,0c0,1.5-1.7,2.7-3.7,2.7s-3.6-1.2-3.6-2.7l0,0C116.1,89.8,116.1,80.9,116.1,80.9z"/>
		<path class="st3" d="M121.8,90.3c-0.4,0-0.7-0.2-0.7-0.6c0,0,0,0,0-0.1c0-0.4,0.3-0.7,0.6-0.7c0,0,0.1,0,0.1,0
			c0.4,0,0.7,0.3,0.6,0.7c0,0,0,0,0,0C122.5,90,122.2,90.3,121.8,90.3C121.8,90.3,121.8,90.3,121.8,90.3z"/>
		<path class="st3" d="M117.6,90.3c-0.4,0-0.7-0.2-0.7-0.6c0,0,0,0,0,0c0-0.4,0.3-0.7,0.6-0.7c0,0,0.1,0,0.1,0
			c0.4,0,0.7,0.3,0.7,0.7c0,0,0,0,0,0C118.3,90,118,90.3,117.6,90.3L117.6,90.3z"/>
		<path class="st3" d="M119.7,85.6c0.4,0,0.7,0.3,0.7,0.6c0,0.4-0.3,0.7-0.7,0.7c0,0,0,0,0,0c-0.4,0-0.6-0.4-0.6-0.7c0,0,0,0,0,0
			C119.1,85.9,119.3,85.6,119.7,85.6z"/>
		<path class="st3" d="M121.8,82.1c0.4,0,0.7,0.3,0.6,0.7c0,0.4-0.3,0.6-0.6,0.6c0,0,0,0,0,0c-0.4,0-0.7-0.2-0.7-0.6c0,0,0,0,0-0.1
			C121.1,82.4,121.4,82.1,121.8,82.1C121.8,82.1,121.8,82.1,121.8,82.1z"/>
		<path class="st3" d="M117.6,83.5c-0.4,0-0.7-0.2-0.7-0.6c0,0,0,0,0,0c0-0.4,0.3-0.7,0.7-0.7c0,0,0,0,0,0c0.4,0,0.7,0.3,0.7,0.7
			C118.3,83.2,118,83.5,117.6,83.5L117.6,83.5z"/>
		<path class="st5" d="M124.8,66.7h7.3v8.9l0,0c0,1.5-1.6,2.7-3.7,2.7c-2,0-3.7-1.2-3.7-2.7l0,0C124.8,75.6,124.8,66.7,124.8,66.7z"
			/>
		<path class="st3" d="M130.7,76.1c-0.4,0-0.7-0.3-0.7-0.6c0,0,0-0.1,0-0.1c0-0.4,0.3-0.7,0.7-0.6c0,0,0,0,0,0
			c0.4,0,0.6,0.3,0.6,0.6c0,0,0,0,0,0C131.4,75.8,131.1,76.1,130.7,76.1C130.7,76.1,130.7,76.1,130.7,76.1z"/>
		<path class="st3" d="M126.4,76.1c-0.4,0-0.7-0.3-0.7-0.6c0,0,0-0.1,0-0.1c0-0.4,0.3-0.7,0.7-0.6c0,0,0,0,0,0
			c0.4,0,0.6,0.3,0.6,0.6c0,0,0,0,0,0C127.1,75.8,126.8,76.1,126.4,76.1C126.5,76.1,126.4,76.1,126.4,76.1z"/>
		<path class="st3" d="M128.5,71.4c0.4,0,0.7,0.3,0.7,0.7c0,0.4-0.3,0.7-0.7,0.7c-0.4,0-0.7-0.3-0.6-0.7
			C127.9,71.7,128.2,71.4,128.5,71.4L128.5,71.4z"/>
		<path class="st3" d="M130.7,67.9c0.4,0,0.7,0.3,0.7,0.7c0,0,0,0,0,0.1c0,0.4-0.3,0.6-0.6,0.6c0,0,0,0,0,0c-0.4,0-0.7-0.2-0.7-0.6
			c0,0,0,0,0,0C129.9,68.3,130.2,68,130.7,67.9C130.6,67.9,130.6,67.9,130.7,67.9z"/>
		<path class="st3" d="M126.4,69.3c-0.4,0-0.7-0.2-0.7-0.6c0,0,0,0,0,0c0-0.4,0.3-0.7,0.6-0.7c0,0,0.1,0,0.1,0
			c0.4,0,0.7,0.3,0.7,0.7c0,0,0,0,0,0.1C127.1,69,126.8,69.3,126.4,69.3C126.4,69.3,126.4,69.3,126.4,69.3z"/>
		<path class="st5" d="M124.8,95.2h7.3v8.8l0,0c0,1.5-1.6,2.8-3.7,2.8c-2,0-3.7-1.3-3.7-2.8l0,0C124.8,103.9,124.8,95.2,124.8,95.2z
			"/>
		<path class="st3" d="M130.7,104.6c-0.4,0-0.7-0.3-0.7-0.7l0,0c0-0.4,0.3-0.7,0.7-0.6c0,0,0,0,0,0c0.4,0,0.6,0.3,0.6,0.6
			c0,0,0,0,0,0C131.3,104.2,131,104.5,130.7,104.6z"/>
		<path class="st3" d="M126.4,104.6c-0.4,0-0.7-0.3-0.7-0.7l0,0c0-0.4,0.3-0.7,0.7-0.6c0,0,0,0,0,0c0.4,0,0.6,0.3,0.6,0.6
			c0,0,0,0,0,0C127.1,104.2,126.8,104.5,126.4,104.6z"/>
		<path class="st3" d="M128.5,99.8c0.4,0,0.7,0.3,0.7,0.7l0,0c0,0.4-0.3,0.7-0.7,0.7c-0.4,0-0.6-0.3-0.6-0.7l0,0
			C127.8,100.1,128.1,99.8,128.5,99.8C128.5,99.8,128.5,99.8,128.5,99.8z"/>
		<path class="st3" d="M130.7,96.4c0.4,0,0.6,0.3,0.6,0.6c0,0,0,0,0,0c0,0.4-0.3,0.7-0.7,0.7c-0.4,0-0.7-0.4-0.7-0.7
			C130,96.6,130.3,96.3,130.7,96.4C130.7,96.4,130.7,96.4,130.7,96.4L130.7,96.4z"/>
		<path class="st3" d="M126.4,97.7c-0.4,0-0.7-0.3-0.7-0.7c0,0,0,0,0,0c0-0.4,0.3-0.7,0.7-0.6c0,0,0,0,0,0c0.4,0,0.6,0.3,0.6,0.6
			c0,0,0,0,0,0C127.1,97.4,126.8,97.7,126.4,97.7L126.4,97.7z"/>
		<path class="st6" d="M139.2,57.6v-1.4l0.9,0.1l-0.2,1.4L139.2,57.6z M139.2,51.7v-1.2l0.3,0.1L139.2,51.7L139.2,51.7z M139.2,50.5
			v1.2l-2.4-0.4l-0.3,1.5l2.2,0.4l-0.2,1.2l-2.1-0.4l-0.5,2.9l-1-0.1l0,0l1.1-6.9L139.2,50.5z M139.2,56.1L139.2,56.1l-0.3,1.4l0,0
			l0.3,0.1V56.1z M128.9,54.1V53h0.1c0.5,0,0.8-0.4,0.8-1.1l0,0c0-0.7-0.3-1-0.8-1h-0.1v-1.2h0.3c1,0,1.7,0.7,1.7,2.2l0,0
			c0,1.6-0.6,2.2-1.8,2.2L128.9,54.1z M131.6,56.7v-1.3h1.1v1.4L131.6,56.7z M119.5,57.5l-1-6.8l3.5-0.5l0.1,1.2l-2.4,0.4l0.2,1.6
			L122,53l0.2,1.2l-2.2,0.2l0.4,2.9L119.5,57.5L119.5,57.5z M128.9,49.7v1.2h-0.9V53h0.9v1.2h-0.9v2.5h-1.1v-7L128.9,49.7z
			 M123.5,56.9l-0.2-1.4l1-0.1l0.2,1.4L123.5,56.9z"/>
		<path class="st7" d="M119.5,57.5l-1-6.8l3.5-0.5l0.1,1.2l-2.4,0.4l0.2,1.6L122,53l0.2,1.2l-2.2,0.2l0.4,2.9L119.5,57.5L119.5,57.5
			z M123.5,56.9l-0.2-1.4l1-0.1l0.2,1.4L123.5,56.9z M134.8,56.8l1.2-6.9l3.5,0.6l-0.2,1.2l-2.4-0.4l-0.3,1.5l2.2,0.4l-0.2,1.2
			l-2.1-0.4l-0.5,2.9L134.8,56.8L134.8,56.8z M138.8,57.5l0.3-1.4l0.9,0.1l-0.2,1.4L138.8,57.5L138.8,57.5z M129.8,52
			c0-0.7-0.3-1-0.8-1h-1.1v2h1.1C129.5,53,129.8,52.6,129.8,52L129.8,52z M130.9,52c0,1.6-0.6,2.2-1.8,2.2h-1.1v2.5h-1.1v-7h2.3
			C130.2,49.7,130.9,50.4,130.9,52L130.9,52z M131.6,56.8v-1.4h1.1v1.4L131.6,56.8z"/>
		<path class="st1" d="M123.5,56.9l-0.2-1.4l1-0.1l0.2,1.4L123.5,56.9z M119.5,57.5l-1-6.8l3.5-0.5l0.1,1.2l-2.4,0.4l0.2,1.6L122,53
			l0.2,1.2l-2.2,0.2l0.4,2.9L119.5,57.5L119.5,57.5z"/>
		<path class="st1" d="M139.2,56.1l0.9,0.1l-0.2,1.4l-0.7-0.1V56.1z M139.2,51.7v-1.2l0.3,0.1L139.2,51.7L139.2,51.7z M138.9,57.5
			l0.3-1.4l0,0v1.4L138.9,57.5z M139.2,50.5l-3.2-0.6l-1.1,6.9l0,0l1,0.1l0.5-2.9l2.1,0.4l0.2-1.1l-2.2-0.4l0.3-1.5l2.4,0.4
			L139.2,50.5z"/>
		<path class="st1" d="M131.6,56.7v-1.4h1.1v1.4H131.6z M128.9,54.2V53h0.1c0.5,0,0.8-0.4,0.8-1.1l0,0c0-0.7-0.3-1-0.8-1h-0.1v-1.2
			h0.3c1,0,1.7,0.7,1.7,2.2l0,0c0,1.6-0.6,2.2-1.8,2.2H128.9L128.9,54.2z M128.9,49.7v1.2h-0.9V53h0.9v1.2h-0.9v2.5h-1.1v-7
			L128.9,49.7z"/>
		<path class="st0" d="M100.9,94.4c0-13.4-2.9-27.1-9.6-38.8l9.4-10.1l2,1.4c2.4,1.9,9.1,1,16-3.2l0.8-0.5c1.3-0.8,2.8-1.3,4.3-1.6
			c2.4-0.3,4.6,1.5,4.9,4c0,0.1,0,0.1,0,0.2c0.1,3.9-4.7,4.1-6.8,1.7l-1.4,1c-6.6,4-13.9,5.7-17.3,3.5l-1-0.5l-5,5.3
			c5.5,10.1,8.8,23.4,8.8,37.8c0,3.2-0.1,6.4-0.4,9.5c3.2,1.6,5.9,4,8.1,6.8c2.5,3.5,5.6,6.5,9.2,8.8c0.2,0.1,0.4,0.2,0.7,0.2
			c0.4,0,0.8-0.2,1.1-0.4c1.9-2.7,5.1-0.6,4.4,2.6c-0.1,0.3-0.2,0.7-0.4,1c-0.5,0.9-1.3,1.5-2.3,1.8c-0.8,0.3-1.7,0.4-2.6,0.4
			c-1.4-0.1-2.7-0.5-4-1c-3.8-2.4-7.1-5.6-9.7-9.3c-2.4-3.8-5.9-6.7-10.1-8.4C100.6,102.5,100.9,98.4,100.9,94.4z"/>
		<path class="st0" d="M156.3,94.4c0,4.1,0.3,8.1,0.8,12.2c-4.1,1.7-7.6,4.6-10,8.3c-2.6,3.7-6,6.9-9.9,9.3
			c-0.4,0.2-0.9,0.4-1.4,0.5c-0.8,0.3-1.7,0.5-2.5,0.5c-0.9,0-1.8-0.1-2.6-0.4c-1-0.3-1.8-0.9-2.3-1.8c-0.2-0.3-0.3-0.7-0.4-1
			c-0.7-3.2,2.4-5.3,4.4-2.6c0.3,0.3,0.7,0.4,1.1,0.4c0.3,0,0.5-0.1,0.8-0.2c3.6-2.3,6.7-5.3,9.1-8.8c2.1-2.9,4.9-5.2,8.1-6.8
			c-0.3-3.2-0.5-6.3-0.5-9.5c0-14.5,3.3-27.7,8.8-37.8l-5-5.3l-0.9,0.5c-3.5,2.2-10.8,0.6-17.4-3.5l-1.5-1c-2,2.4-6.7,2.1-6.7-1.7
			c0.2-2.5,2.3-4.4,4.8-4.2c0.1,0,0.1,0,0.2,0c1.5,0.3,3,0.8,4.3,1.6l0.8,0.5c6.9,4.2,13.6,5.2,16,3.2l2.1-1.4l9.4,10.2
			C159.1,67.2,156.3,81,156.3,94.4z"/>
		<path class="st1" d="M122,121.1c-3.8-2.4-7.1-5.6-9.7-9.4c-2.2-2.9-5.1-5.3-8.5-6.8c0.4-3.5,0.6-7,0.6-10.5
			c0-13.1-2.7-26.5-9.1-38.1l6.6-7l2.2,1.2c4.4,2.9,14.3-2.4,18.4-5.3c0.7,1.2,1.7,2.5,3.2,2.2c0.9-0.1,1.5-0.8,1.5-1.7
			c-0.1-1.6-1.5-2.7-3.1-2.6c0,0,0,0-0.1,0c-1.3,0.2-2.6,0.7-3.8,1.4l-0.7,0.4c-6.8,4.2-14.4,5.9-17.8,3.2l-0.9-0.6l-7.7,8.3
			c5.8,10.2,9.2,23.8,9.2,38.6c0,3.8-0.2,7.5-0.6,11.2c3.9,1.8,7.3,4.7,9.6,8.4c2.5,3.5,5.6,6.4,9.1,8.7c1,0.4,2.1,0.7,3.2,0.9
			c0.7,0,1.4-0.1,2.1-0.4c0.6-0.1,1.1-0.5,1.4-1.1c0.1-0.2,0.2-0.4,0.2-0.6c0.3-1.4-0.6-2.7-1.7-1.2c-0.6,0.6-1.4,1-2.3,0.9
			C123,121.4,122.5,121.3,122,121.1z"/>
		<path class="st1" d="M135,121.1c-0.4,0.2-0.9,0.3-1.4,0.3c-0.9,0-1.7-0.3-2.3-0.9c-1-1.6-2-0.3-1.7,1.2c0.1,0.2,0.1,0.4,0.2,0.6
			c0.3,0.5,0.8,0.9,1.4,1.1c0.7,0.2,1.4,0.4,2.1,0.4c1.1-0.1,2.2-0.4,3.2-0.9c3.7-2.2,6.8-5.2,9.2-8.7c2.3-3.7,5.7-6.6,9.6-8.4
			c-0.5-3.7-0.7-7.5-0.7-11.2c0-14.8,3.5-28.4,9.2-38.6l-7.7-8.3l-0.9,0.6c-3.3,2.7-10.9,1-17.8-3.2l-0.7-0.4
			c-1.2-0.7-2.5-1.1-3.8-1.4c-1.6-0.1-2.9,1-3.1,2.6c0,2.3,3.2,2.2,4.3,0.3l0.4-0.8c4.2,3,14.1,8.3,18.6,5.3l2.1-1.1l6.5,7
			c-6.4,11.6-9.1,25-9.1,38.1c0,3.5,0.2,7,0.6,10.5c-3.4,1.5-6.3,3.8-8.6,6.8c-2.5,3.7-5.8,6.9-9.7,9.3L135,121.1L135,121.1z"/>
	</g>
</g>
</svg>
